{
    "asset" : {
        "generator" : "Khronos glTF Blender I/O v1.7.33",
        "version" : "2.0"
    },
    "scene" : 0,
    "scenes" : [
        {
            "name" : "Scene",
            "nodes" : [
                0
            ]
        }
    ],
    "nodes" : [
        {
            "mesh" : 0,
            "name" : "Box010.001"
        }
    ],
    "materials" : [
        {
            "doubleSided" : true,
            "name" : "mirror.001",
            "pbrMetallicRoughness" : {
                "metallicFactor" : 0,
                "roughnessFactor" : 0
            }
        },
        {
            "doubleSided" : true,
            "name" : "Color.001",
            "pbrMetallicRoughness" : {
                "baseColorTexture" : {
                    "index" : 0
                },
                "metallicFactor" : 0,
                "roughnessFactor" : 0.5
            }
        },
        {
            "doubleSided" : true,
            "name" : "metal.002",
            "pbrMetallicRoughness" : {
                "baseColorFactor" : [
                    0.21335649490356445,
                    0.3268619477748871,
                    0.36723822355270386,
                    1
                ],
                "roughnessFactor" : 0.31767675280570984
            }
        },
        {
            "doubleSided" : true,
            "name" : "metal.003",
            "pbrMetallicRoughness" : {
                "baseColorFactor" : [
                    0.8794687390327454,
                    0.9709928035736084,
                    1,
                    1
                ],
                "metallicFactor" : 0.3030303120613098,
                "roughnessFactor" : 0.1964646279811859
            }
        },
        {
            "doubleSided" : true,
            "name" : "emission_window.001",
            "pbrMetallicRoughness" : {
                "baseColorFactor" : [
                    0.800000011920929,
                    0.800000011920929,
                    0.800000011920929,
                    1
                ],
                "metallicFactor" : 0,
                "roughnessFactor" : 0.4000000059604645
            }
        },
        {
            "doubleSided" : true,
            "name" : "emission_lamp.001",
            "pbrMetallicRoughness" : {
                "baseColorFactor" : [
                    0.800000011920929,
                    0.800000011920929,
                    0.800000011920929,
                    1
                ],
                "metallicFactor" : 0,
                "roughnessFactor" : 0.4000000059604645
            }
        },
        {
            "doubleSided" : true,
            "name" : "glass.001",
            "pbrMetallicRoughness" : {
                "baseColorFactor" : [
                    0.800000011920929,
                    0.800000011920929,
                    0.800000011920929,
                    1
                ],
                "metallicFactor" : 0,
                "roughnessFactor" : 0.009090900421142578
            }
        }
    ],
    "meshes" : [
        {
            "name" : "Box010.002",
            "primitives" : [
                {
                    "attributes" : {
                        "POSITION" : 0,
                        "NORMAL" : 1,
                        "TEXCOORD_0" : 2
                    },
                    "indices" : 3,
                    "material" : 0
                },
                {
                    "attributes" : {
                        "POSITION" : 4,
                        "NORMAL" : 5,
                        "TEXCOORD_0" : 6
                    },
                    "indices" : 7,
                    "material" : 1
                },
                {
                    "attributes" : {
                        "POSITION" : 8,
                        "NORMAL" : 9,
                        "TEXCOORD_0" : 10
                    },
                    "indices" : 11,
                    "material" : 2
                },
                {
                    "attributes" : {
                        "POSITION" : 12,
                        "NORMAL" : 13,
                        "TEXCOORD_0" : 14
                    },
                    "indices" : 15,
                    "material" : 3
                },
                {
                    "attributes" : {
                        "POSITION" : 16,
                        "NORMAL" : 17,
                        "TEXCOORD_0" : 18
                    },
                    "indices" : 19,
                    "material" : 4
                },
                {
                    "attributes" : {
                        "POSITION" : 20,
                        "NORMAL" : 21,
                        "TEXCOORD_0" : 22
                    },
                    "indices" : 23,
                    "material" : 5
                },
                {
                    "attributes" : {
                        "POSITION" : 24,
                        "NORMAL" : 25,
                        "TEXCOORD_0" : 26
                    },
                    "indices" : 27,
                    "material" : 6
                }
            ]
        }
    ],
    "textures" : [
        {
            "sampler" : 0,
            "source" : 0
        }
    ],
    "images" : [
        {
            "bufferView" : 8,
            "mimeType" : "image/jpeg",
            "name" : "low_poly_big_color_palette_by_dincaalin_dc"
        }
    ],
    "accessors" : [
        {
            "bufferView" : 0,
            "componentType" : 5126,
            "count" : 64,
            "max" : [
                6.646424770355225,
                7.683434009552002,
                5.5603179931640625
            ],
            "min" : [
                3.5135409832000732,
                0.7166479825973511,
                1.4651987552642822
            ],
            "type" : "VEC3"
        },
        {
            "bufferView" : 1,
            "componentType" : 5126,
            "count" : 64,
            "type" : "VEC3"
        },
        {
            "bufferView" : 2,
            "componentType" : 5126,
            "count" : 64,
            "type" : "VEC2"
        },
        {
            "bufferView" : 3,
            "componentType" : 5123,
            "count" : 96,
            "type" : "SCALAR"
        },
        {
            "bufferView" : 4,
            "componentType" : 5126,
            "count" : 29703,
            "max" : [
                7.084996700286865,
                10.0671968460083,
                7.109984397888184
            ],
            "min" : [
                -7.117390155792236,
                -0.16836021840572357,
                -8.094864845275879
            ],
            "type" : "VEC3"
        },
        {
            "bufferView" : 5,
            "componentType" : 5126,
            "count" : 29703,
            "type" : "VEC3"
        },
        {
            "bufferView" : 6,
            "componentType" : 5126,
            "count" : 29703,
            "type" : "VEC2"
        },
        {
            "bufferView" : 7,
            "componentType" : 5123,
            "count" : 47658,
            "type" : "SCALAR"
        },
        {
            "bufferView" : 9,
            "componentType" : 5126,
            "count" : 6839,
            "max" : [
                7,
                7.544495105743408,
                5.462681770324707
            ],
            "min" : [
                -7.127387046813965,
                -0.04065699875354767,
                -7.051508903503418
            ],
            "type" : "VEC3"
        },
        {
            "bufferView" : 10,
            "componentType" : 5126,
            "count" : 6839,
            "type" : "VEC3"
        },
        {
            "bufferView" : 11,
            "componentType" : 5126,
            "count" : 6839,
            "type" : "VEC2"
        },
        {
            "bufferView" : 12,
            "componentType" : 5123,
            "count" : 10683,
            "type" : "SCALAR"
        },
        {
            "bufferView" : 13,
            "componentType" : 5126,
            "count" : 786,
            "max" : [
                4.656012058258057,
                5.896228790283203,
                4.569545269012451
            ],
            "min" : [
                -7.067958831787109,
                0,
                -6.858351230621338
            ],
            "type" : "VEC3"
        },
        {
            "bufferView" : 14,
            "componentType" : 5126,
            "count" : 786,
            "type" : "VEC3"
        },
        {
            "bufferView" : 15,
            "componentType" : 5126,
            "count" : 786,
            "type" : "VEC2"
        },
        {
            "bufferView" : 16,
            "componentType" : 5123,
            "count" : 1224,
            "type" : "SCALAR"
        },
        {
            "bufferView" : 17,
            "componentType" : 5126,
            "count" : 16,
            "max" : [
                5.724793910980225,
                8.099072456359863,
                -0.8791521787643433
            ],
            "min" : [
                -3.6954660415649414,
                3.209016799926758,
                -8.094864845275879
            ],
            "type" : "VEC3"
        },
        {
            "bufferView" : 18,
            "componentType" : 5126,
            "count" : 16,
            "type" : "VEC3"
        },
        {
            "bufferView" : 19,
            "componentType" : 5126,
            "count" : 16,
            "type" : "VEC2"
        },
        {
            "bufferView" : 20,
            "componentType" : 5123,
            "count" : 24,
            "type" : "SCALAR"
        },
        {
            "bufferView" : 21,
            "componentType" : 5126,
            "count" : 814,
            "max" : [
                6.719587802886963,
                5.337034702301025,
                2.0501904487609863
            ],
            "min" : [
                -4.952714920043945,
                1.4871360063552856,
                -6.281795978546143
            ],
            "type" : "VEC3"
        },
        {
            "bufferView" : 22,
            "componentType" : 5126,
            "count" : 814,
            "type" : "VEC3"
        },
        {
            "bufferView" : 23,
            "componentType" : 5126,
            "count" : 814,
            "type" : "VEC2"
        },
        {
            "bufferView" : 24,
            "componentType" : 5123,
            "count" : 876,
            "type" : "SCALAR"
        },
        {
            "bufferView" : 25,
            "componentType" : 5126,
            "count" : 188,
            "max" : [
                3.933255672454834,
                4.889866828918457,
                -4.793126106262207
            ],
            "min" : [
                3.0823633670806885,
                3.005122423171997,
                -6.427463531494141
            ],
            "type" : "VEC3"
        },
        {
            "bufferView" : 26,
            "componentType" : 5126,
            "count" : 188,
            "type" : "VEC3"
        },
        {
            "bufferView" : 27,
            "componentType" : 5126,
            "count" : 188,
            "type" : "VEC2"
        },
        {
            "bufferView" : 28,
            "componentType" : 5123,
            "count" : 324,
            "type" : "SCALAR"
        }
    ],
    "bufferViews" : [
        {
            "buffer" : 0,
            "byteLength" : 768,
            "byteOffset" : 0
        },
        {
            "buffer" : 0,
            "byteLength" : 768,
            "byteOffset" : 768
        },
        {
            "buffer" : 0,
            "byteLength" : 512,
            "byteOffset" : 1536
        },
        {
            "buffer" : 0,
            "byteLength" : 192,
            "byteOffset" : 2048
        },
        {
            "buffer" : 0,
            "byteLength" : 356436,
            "byteOffset" : 2240
        },
        {
            "buffer" : 0,
            "byteLength" : 356436,
            "byteOffset" : 358676
        },
        {
            "buffer" : 0,
            "byteLength" : 237624,
            "byteOffset" : 715112
        },
        {
            "buffer" : 0,
            "byteLength" : 95316,
            "byteOffset" : 952736
        },
        {
            "buffer" : 0,
            "byteLength" : 24537,
            "byteOffset" : 1048052
        },
        {
            "buffer" : 0,
            "byteLength" : 82068,
            "byteOffset" : 1072592
        },
        {
            "buffer" : 0,
            "byteLength" : 82068,
            "byteOffset" : 1154660
        },
        {
            "buffer" : 0,
            "byteLength" : 54712,
            "byteOffset" : 1236728
        },
        {
            "buffer" : 0,
            "byteLength" : 21366,
            "byteOffset" : 1291440
        },
        {
            "buffer" : 0,
            "byteLength" : 9432,
            "byteOffset" : 1312808
        },
        {
            "buffer" : 0,
            "byteLength" : 9432,
            "byteOffset" : 1322240
        },
        {
            "buffer" : 0,
            "byteLength" : 6288,
            "byteOffset" : 1331672
        },
        {
            "buffer" : 0,
            "byteLength" : 2448,
            "byteOffset" : 1337960
        },
        {
            "buffer" : 0,
            "byteLength" : 192,
            "byteOffset" : 1340408
        },
        {
            "buffer" : 0,
            "byteLength" : 192,
            "byteOffset" : 1340600
        },
        {
            "buffer" : 0,
            "byteLength" : 128,
            "byteOffset" : 1340792
        },
        {
            "buffer" : 0,
            "byteLength" : 48,
            "byteOffset" : 1340920
        },
        {
            "buffer" : 0,
            "byteLength" : 9768,
            "byteOffset" : 1340968
        },
        {
            "buffer" : 0,
            "byteLength" : 9768,
            "byteOffset" : 1350736
        },
        {
            "buffer" : 0,
            "byteLength" : 6512,
            "byteOffset" : 1360504
        },
        {
            "buffer" : 0,
            "byteLength" : 1752,
            "byteOffset" : 1367016
        },
        {
            "buffer" : 0,
            "byteLength" : 2256,
            "byteOffset" : 1368768
        },
        {
            "buffer" : 0,
            "byteLength" : 2256,
            "byteOffset" : 1371024
        },
        {
            "buffer" : 0,
            "byteLength" : 1504,
            "byteOffset" : 1373280
        },
        {
            "buffer" : 0,
            "byteLength" : 648,
            "byteOffset" : 1374784
        }
    ],
    "samplers" : [
        {
            "magFilter" : 9729,
            "minFilter" : 9987
        }
    ],
    "buffers" : [
        {
            "byteLength" : 1375432,
            "uri" : "data:application/octet-stream;base64,"
        }
    ]
}
