{
    "asset" : {
        "generator" : "Khronos glTF Blender I/O v1.7.33",
        "version" : "2.0"
    },
    "scene" : 0,
    "scenes" : [
        {
            "name" : "Scene",
            "nodes" : [
                1
            ]
        }
    ],
    "nodes" : [
        {
            "mesh" : 0,
            "name" : "\u6324\u538b",
            "scale" : [
                4,
                4,
                4
            ],
            "translation" : [
                -6.922860145568848,
                -44.36840057373047,
                -352.02423095703125
            ]
        },
        {
            "children" : [
                0
            ],
            "name" : "logo",
            "rotation" : [
                0.7071068286895752,
                0,
                0,
                0.7071067094802856
            ],
            "scale" : [
                0.009999999776482582,
                0.009999999776482582,
                0.009999999776482582
            ],
            "translation" : [
                0,
                0,
                -0.05872261896729469
            ]
        }
    ],
    "materials" : [
        {
            "doubleSided" : true,
            "name" : "Material",
            "pbrMetallicRoughness" : {
                "baseColorFactor" : [
                    0.8000000715255737,
                    0.011775747872889042,
                    0.041666243225336075,
                    1
                ],
                "metallicFactor" : 0,
                "roughnessFactor" : 0.5
            }
        }
    ],
    "meshes" : [
        {
            "name" : "Mesh",
            "primitives" : [
                {
                    "attributes" : {
                        "POSITION" : 0,
                        "NORMAL" : 1,
                        "TANGENT" : 2,
                        "TEXCOORD_0" : 3,
                        "TEXCOORD_1" : 4
                    },
                    "indices" : 5,
                    "material" : 0
                }
            ]
        }
    ],
    "accessors" : [
        {
            "bufferView" : 0,
            "componentType" : 5126,
            "count" : 12559,
            "max" : [
                19.67300033569336,
                -1.271152377128601,
                19.653900146484375
            ],
            "min" : [
                -19.67300033569336,
                -7.2714667320251465,
                -19.653900146484375
            ],
            "type" : "VEC3"
        },
        {
            "bufferView" : 1,
            "componentType" : 5126,
            "count" : 12559,
            "type" : "VEC3"
        },
        {
            "bufferView" : 2,
            "componentType" : 5126,
            "count" : 12559,
            "type" : "VEC4"
        },
        {
            "bufferView" : 3,
            "componentType" : 5126,
            "count" : 12559,
            "type" : "VEC2"
        },
        {
            "bufferView" : 4,
            "componentType" : 5126,
            "count" : 12559,
            "type" : "VEC2"
        },
        {
            "bufferView" : 5,
            "componentType" : 5123,
            "count" : 71322,
            "type" : "SCALAR"
        }
    ],
    "bufferViews" : [
        {
            "buffer" : 0,
            "byteLength" : 150708,
            "byteOffset" : 0
        },
        {
            "buffer" : 0,
            "byteLength" : 150708,
            "byteOffset" : 150708
        },
        {
            "buffer" : 0,
            "byteLength" : 200944,
            "byteOffset" : 301416
        },
        {
            "buffer" : 0,
            "byteLength" : 100472,
            "byteOffset" : 502360
        },
        {
            "buffer" : 0,
            "byteLength" : 100472,
            "byteOffset" : 602832
        },
        {
            "buffer" : 0,
            "byteLength" : 142644,
            "byteOffset" : 703304
        }
    ],
    "buffers" : [
        {
            "byteLength" : 845948,
            "uri" : "data:application/octet-stream;base64,"
        }
    ]
}
